<svg xmlns="http://www.w3.org/2000/svg" width="33" height="30" viewBox="0 0 33 30">
  <path id="door_icon" data-name="door icon" d="M1021.293,1432H991.707a1.687,1.687,0,0,1-1.707-1.667V1417a1.67,1.67,0,0,1,1.138-1.561v-.295a2.744,2.744,0,0,1,.831-1.966l10.617-10.367a2.88,2.88,0,0,1,2.014-.811h15.556a1.687,1.687,0,0,1,1.707,1.667v11.767A1.67,1.67,0,0,1,1023,1417v13.333A1.687,1.687,0,0,1,1021.293,1432Zm-.569-28.333a.563.563,0,0,0-.569-.556H1004.6a1.728,1.728,0,0,0-1.206.489l-10.617,10.366a1.648,1.648,0,0,0-.5,1.178v.189h23.9v-1.111a.569.569,0,0,1,1.138,0v1.111h3.414Zm1.138,13.333a.563.563,0,0,0-.569-.556H991.707a.562.562,0,0,0-.569.556v13.333a.562.562,0,0,0,.569.555h29.586a.562.562,0,0,0,.569-.555Zm-2.845,12.222a.563.563,0,0,1-.569-.556v-1.111a.569.569,0,0,1,1.138,0v1.111A.563.563,0,0,1,1019.017,1429.222Zm-1.138-7.222h-4.552a1.667,1.667,0,1,1,0-3.333h4.552a1.667,1.667,0,1,1,0,3.333Zm0-2.222h-4.552a.556.556,0,1,0,0,1.111h4.552a.556.556,0,1,0,0-1.111Zm-7.4,9.444a.563.563,0,0,1-.569-.556v-1.111a.569.569,0,0,1,1.138,0v1.111A.563.563,0,0,1,1010.483,1429.222Zm-2.845,0a.563.563,0,0,1-.569-.556v-1.111a.569.569,0,0,1,1.138,0v1.111A.563.563,0,0,1,1007.638,1429.222Zm-2.845,0a.563.563,0,0,1-.569-.556v-1.111a.569.569,0,0,1,1.138,0v1.111A.563.563,0,0,1,1004.793,1429.222Zm-2.845,0a.563.563,0,0,1-.569-.556v-1.111a.569.569,0,0,1,1.138,0v1.111A.563.563,0,0,1,1001.948,1429.222Zm-2.845,0a.563.563,0,0,1-.569-.556v-1.111a.569.569,0,0,1,1.138,0v1.111A.563.563,0,0,1,999.1,1429.222Zm-2.845,0a.563.563,0,0,1-.569-.556v-1.111a.569.569,0,0,1,1.138,0v1.111A.563.563,0,0,1,996.259,1429.222Zm-2.845,0a.563.563,0,0,1-.569-.556v-1.111a.569.569,0,0,1,1.138,0v1.111A.563.563,0,0,1,993.414,1429.222Zm19.914-2.222a.562.562,0,0,1,.569.555v1.111a.569.569,0,0,1-1.138,0v-1.111A.562.562,0,0,1,1013.328,1427Zm2.845,0a.562.562,0,0,1,.569.555v1.111a.569.569,0,0,1-1.138,0v-1.111A.562.562,0,0,1,1016.172,1427Zm-1.138-22.222a.562.562,0,0,1,.569-.556h2.276a.556.556,0,1,1,0,1.111H1015.6A.562.562,0,0,1,1015.034,1404.778Zm-1.707.556h-7.965a.556.556,0,1,1,0-1.111h7.965a.556.556,0,1,1,0,1.111Z" transform="translate(-990 -1402)" fill="#41958c"/>
</svg>
