<svg xmlns="http://www.w3.org/2000/svg" width="60.003" height="12.001" viewBox="0 0 60.003 12.001">
  <g id="Group_13" data-name="Group 13" transform="translate(-982.998 -1644.25)">
    <g id="Iconly_Bold_Star" data-name="Iconly/Bold/Star" transform="translate(1030.998 1644.25)">
      <g id="Star" transform="translate(0)">
        <path id="Star-2" data-name="Star" d="M9.552,7.466a.718.718,0,0,0-.191.613l.533,3.107a.7.7,0,0,1-.27.682.633.633,0,0,1-.7.051L6.264,10.459a.652.652,0,0,0-.3-.083H5.8a.471.471,0,0,0-.162.057L2.982,11.9a.67.67,0,0,1-.426.069.7.7,0,0,1-.534-.8l.534-3.107a.73.73,0,0,0-.191-.618L.2,5.23a.707.707,0,0,1-.161-.714.684.684,0,0,1,.533-.474l2.982-.455A.669.669,0,0,0,4.08,3.2L5.394.366A.656.656,0,0,1,5.514.2L5.568.152a.407.407,0,0,1,.1-.082L5.73.044,5.832,0h.253a.672.672,0,0,1,.528.379L7.944,3.2a.671.671,0,0,0,.5.385l2.982.455a.69.69,0,0,1,.546.474.711.711,0,0,1-.174.714Z" fill="#ffd300"/>
      </g>
    </g>
    <g id="Iconly_Bold_Star-2" data-name="Iconly/Bold/Star" transform="translate(1014.998 1644.25)">
      <g id="Star-3" data-name="Star" transform="translate(0)">
        <path id="Star-4" data-name="Star" d="M9.552,7.466a.718.718,0,0,0-.191.613l.533,3.107a.7.7,0,0,1-.27.682.633.633,0,0,1-.7.051L6.264,10.459a.652.652,0,0,0-.3-.083H5.8a.471.471,0,0,0-.162.057L2.982,11.9a.67.67,0,0,1-.426.069.7.7,0,0,1-.534-.8l.534-3.107a.73.73,0,0,0-.191-.618L.2,5.23a.707.707,0,0,1-.161-.714.684.684,0,0,1,.533-.474l2.982-.455A.669.669,0,0,0,4.08,3.2L5.394.366A.656.656,0,0,1,5.514.2L5.568.152a.407.407,0,0,1,.1-.082L5.73.044,5.832,0h.253a.672.672,0,0,1,.528.379L7.944,3.2a.671.671,0,0,0,.5.385l2.982.455a.69.69,0,0,1,.546.474.711.711,0,0,1-.174.714Z" fill="#ffd300"/>
      </g>
    </g>
    <g id="Iconly_Bold_Star-3" data-name="Iconly/Bold/Star" transform="translate(998.998 1644.25)">
      <g id="Star-5" data-name="Star" transform="translate(0)">
        <path id="Star-6" data-name="Star" d="M9.552,7.466a.718.718,0,0,0-.191.613l.533,3.107a.7.7,0,0,1-.27.682.633.633,0,0,1-.7.051L6.264,10.459a.652.652,0,0,0-.3-.083H5.8a.471.471,0,0,0-.162.057L2.982,11.9a.67.67,0,0,1-.426.069.7.7,0,0,1-.534-.8l.534-3.107a.73.73,0,0,0-.191-.618L.2,5.23a.707.707,0,0,1-.161-.714.684.684,0,0,1,.533-.474l2.982-.455A.669.669,0,0,0,4.08,3.2L5.394.366A.656.656,0,0,1,5.514.2L5.568.152a.407.407,0,0,1,.1-.082L5.73.044,5.832,0h.253a.672.672,0,0,1,.528.379L7.944,3.2a.671.671,0,0,0,.5.385l2.982.455a.69.69,0,0,1,.546.474.711.711,0,0,1-.174.714Z" fill="#ffd300"/>
      </g>
    </g>
    <g id="Iconly_Bold_Star-4" data-name="Iconly/Bold/Star" transform="translate(982.998 1644.25)">
      <g id="Star-7" data-name="Star" transform="translate(0)">
        <path id="Star-8" data-name="Star" d="M9.552,7.466a.718.718,0,0,0-.191.613l.533,3.107a.7.7,0,0,1-.27.682.633.633,0,0,1-.7.051L6.264,10.459a.652.652,0,0,0-.3-.083H5.8a.471.471,0,0,0-.162.057L2.982,11.9a.67.67,0,0,1-.426.069.7.7,0,0,1-.534-.8l.534-3.107a.73.73,0,0,0-.191-.618L.2,5.23a.707.707,0,0,1-.161-.714.684.684,0,0,1,.533-.474l2.982-.455A.669.669,0,0,0,4.08,3.2L5.394.366A.656.656,0,0,1,5.514.2L5.568.152a.407.407,0,0,1,.1-.082L5.73.044,5.832,0h.253a.672.672,0,0,1,.528.379L7.944,3.2a.671.671,0,0,0,.5.385l2.982.455a.69.69,0,0,1,.546.474.711.711,0,0,1-.174.714Z" fill="#ffd300"/>
      </g>
    </g>
  </g>
</svg>
