<svg xmlns="http://www.w3.org/2000/svg" xmlns:xlink="http://www.w3.org/1999/xlink" width="66" height="66" viewBox="0 0 66 66">
  <defs>
    <linearGradient id="linear-gradient" x1="0.5" y1="0.927" x2="0.5" y2="-0.073" gradientUnits="objectBoundingBox">
      <stop offset="0" stop-color="#78cd51"/>
      <stop offset="1" stop-color="#a0fc84"/>
    </linearGradient>
  </defs>
  <g id="Group_28" data-name="Group 28" transform="translate(-806 -1244)">
    <circle id="Ellipse_2" data-name="Ellipse 2" cx="33" cy="33" r="33" transform="translate(806 1244)" fill="url(#linear-gradient)"/>
    <g id="Group_24" data-name="Group 24" transform="translate(818.99 1255.249)">
      <path id="WA_Logo" data-name="WA Logo" d="M2.978,31.473a20.992,20.992,0,1,1,18.189,10.51h-.009a20.982,20.982,0,0,1-10.03-2.554L0,42.346Zm9.3,4.534a17.414,17.414,0,0,0,8.879,2.431h.008A17.442,17.442,0,1,0,6.387,30.265l.415.66L5.04,37.361l6.6-1.731Zm12.312-5.24a30.1,30.1,0,0,1-2.99-1.1c-5.261-2.271-8.7-7.567-8.959-7.917A10.2,10.2,0,0,1,10.5,16.322a5.878,5.878,0,0,1,1.836-4.374,1.926,1.926,0,0,1,1.4-.656c.349,0,.7,0,1,.019.037,0,.077,0,.118,0,.306,0,.686,0,1.063.9.437,1.05,1.486,3.63,1.616,3.893a.965.965,0,0,1,.044.919,3.576,3.576,0,0,1-.524.874c-.263.307-.551.684-.787.919-.263.261-.536.545-.23,1.07a15.791,15.791,0,0,0,2.918,3.632,14.312,14.312,0,0,0,4.218,2.6c.525.263.831.219,1.137-.131s1.311-1.531,1.661-2.056.7-.438,1.18-.263,3.059,1.443,3.584,1.706.874.394,1.005.613a4.384,4.384,0,0,1-.306,2.493C31,29.706,28.9,30.825,27.9,30.975a8.613,8.613,0,0,1-1.273.1A6.659,6.659,0,0,1,24.592,30.767Z" fill="#fff"/>
    </g>
  </g>
</svg>
