<svg xmlns="http://www.w3.org/2000/svg" width="90" height="73" viewBox="0 0 90 73">
  <g id="Group_6" data-name="Group 6" transform="translate(-0.441 -0.332)">
    <path id="Path_16" data-name="Path 16" d="M686.953,27.623c1.105.051,2.11-.041,3,0v4h-90v-4c.809-.051.969.066,2,0v-63h26v-6h34v6h25Zm-81-59v59h28v-59Zm49,0v59h28v-59Zm-8,7h4v-4h-4v-6c.986,0,2.132.051,3,0,.492-.029.538.176,1,0,.56-.213,1.447-.966,2-1,1.691-.1,3.231,0,5,0v-3h-26v3c1.815,0,3.3-.025,5,0,.454.007.956-.176,1,0,.333,1.323,1.22.94,2,1,.744.057,2.213,0,3,0v6h-4v4h4v6h-4v4h4v6h-4v4h4v6h-4v4h4v6h-4v6h12v-6h-4v-6h4v-4h-4v-6h4v-4h-4v-6h4v-4h-4Zm-8,52h12v-6h-12Z" transform="translate(-599.512 41.709)" fill="#41958c"/>
    <path id="Path_21" data-name="Path 21" d="M628.646,65.543v-7h9v7Z" transform="translate(-618.205 -23.212)" fill="#41958c"/>
    <path id="Path_22" data-name="Path 22" d="M628.781,88.709h9v6h-9Z" transform="translate(-618.34 -42.377)" fill="#41958c"/>
    <path id="Path_23" data-name="Path 23" d="M628.724,118.393h9v7h-9Z" transform="translate(-618.283 -62.061)" fill="#41958c"/>
    <path id="Path_24" data-name="Path 24" d="M664.953,58.466h8v7h-8Z" transform="translate(-641.511 -23.134)" fill="#41958c"/>
    <path id="Path_25" data-name="Path 25" d="M673,88.8v6h-8v-6Z" transform="translate(-641.558 -42.47)" fill="#41958c"/>
    <path id="Path_26" data-name="Path 26" d="M673,125.448h-8v-7h8Z" transform="translate(-641.56 -62.116)" fill="#41958c"/>
    <path id="Path_27" data-name="Path 27" d="M637.671,5.984h-9v-7h9Z" transform="translate(-618.23 15.348)" fill="#41958c"/>
    <path id="Path_28" data-name="Path 28" d="M637.672,35.318h-9v-6h9Z" transform="translate(-618.23 -3.986)" fill="#41958c"/>
    <path id="Path_29" data-name="Path 29" d="M672.962-.993v7h-8v-7Z" transform="translate(-641.52 15.325)" fill="#41958c"/>
    <path id="Path_30" data-name="Path 30" d="M672.968,29.31v6h-8v-6Z" transform="translate(-641.526 -3.978)" fill="#41958c"/>
    <path id="Path_31" data-name="Path 31" d="M810.654,65.523h-8v-7h8Z" transform="translate(-731.213 -23.191)" fill="#41958c"/>
    <path id="Path_32" data-name="Path 32" d="M810.6,88.788v6h-8v-6Z" transform="translate(-731.16 -42.456)" fill="#41958c"/>
    <path id="Path_33" data-name="Path 33" d="M810.608,125.435h-8v-7h8Z" transform="translate(-731.167 -62.103)" fill="#41958c"/>
    <path id="Path_34" data-name="Path 34" d="M767.516,58.415h8v7h-8Z" transform="translate(-708.075 -23.083)" fill="#41958c"/>
    <path id="Path_35" data-name="Path 35" d="M775.556,94.738h-8v-6h8Z" transform="translate(-708.115 -42.406)" fill="#41958c"/>
    <path id="Path_36" data-name="Path 36" d="M775.478,118.484v7h-8v-7Z" transform="translate(-708.036 -62.153)" fill="#41958c"/>
    <path id="Path_37" data-name="Path 37" d="M810.566,5.965h-8v-7h8Z" transform="translate(-731.125 15.367)" fill="#41958c"/>
    <path id="Path_38" data-name="Path 38" d="M810.583,29.314v6h-8v-6Z" transform="translate(-731.141 -3.982)" fill="#41958c"/>
    <path id="Path_39" data-name="Path 39" d="M775.553-1.029v7h-8v-7Z" transform="translate(-708.112 15.361)" fill="#41958c"/>
    <path id="Path_40" data-name="Path 40" d="M767.5,29.21h8v6h-8Z" transform="translate(-708.06 -3.879)" fill="#41958c"/>
  </g>
</svg>
