<svg id="Group_7" data-name="Group 7" xmlns="http://www.w3.org/2000/svg" width="169.491" height="62.156" viewBox="0 0 169.491 62.156">
  <path id="Path_41" data-name="Path 41" d="M448.3,378.955c.89-2.66,1.824-5.284,3.864-7.355a14.821,14.821,0,0,1,8.528-4.308c-1.139-2.283-2.178-4.458-3.319-6.579a2.75,2.75,0,0,0-1.28-.915c-1.146-.531-2.369-.909-3.482-1.5a2.78,2.78,0,0,1,1.82-5.179,5.981,5.981,0,0,1,1.262.351q6.366,2.522,12.721,5.07c2.12.856,2.905,2.233,2.319,3.931-.556,1.612-2.185,2.174-4.281,1.478l-.786-.261c.536,3.344,2.571,4.36,5.726,2.907,8.645-3.982,17.294-7.953,25.918-11.98a46.182,46.182,0,0,1,20.3-4.464c4.8.052,9.6.01,14.4.01a50.56,50.56,0,0,1,32.5,13.988c2.758,2.982,6.1,4.208,10.146,4.57a146.225,146.225,0,0,1,27.9,5.77c2.057.6,4.128,1.18,6.129,1.936a13.881,13.881,0,0,1,9.1,13.128c.021,2.7.015,5.406,0,8.109-.012,2.335-1.074,3.419-3.454,3.431-5.3.026-10.592.035-15.887-.014a1.816,1.816,0,0,0-1.967,1.235c-3.074,6.483-8.291,10-15.43,9.989s-12.335-3.546-15.411-10.027a1.73,1.73,0,0,0-1.83-1.2q-35,.042-70.006,0a1.73,1.73,0,0,0-1.831,1.2c-3.05,6.519-8.278,10.014-15.407,10.02s-12.354-3.493-15.413-10.005c-.4-.861-.841-1.316-1.844-1.212a15.463,15.463,0,0,1-2.645,0,8.567,8.567,0,0,1-7.924-5.756,8.639,8.639,0,0,0-.429-.818Zm61.759-6c.544.557.853.923,1.212,1.231,3.434,2.943,6.839,5.922,10.344,8.776a4.785,4.785,0,0,0,2.77,1.008c8.991.074,17.983.039,26.974.055a8.953,8.953,0,0,1,2.284.256,2.509,2.509,0,0,1,1.954,2.546c.066,1.908-1.254,3-3.708,3-9.709.012-19.418.052-29.125-.055a6.147,6.147,0,0,1-3.555-1.337c-5.108-4.206-10.2-8.443-15.079-12.909-2.194-2.009-4.4-3.016-7.365-2.687a54.458,54.458,0,0,1-5.982.042c2.7,2.807,5.527,5.171,8.221,7.678,2.336,2.174,4.576,4.1,8.2,3.542a2.819,2.819,0,0,1,3.275,2.917c-.071,1.663-1.393,2.751-3.472,2.807-1.268.034-2.539-.04-3.805.019a5.494,5.494,0,0,1-4.038-1.526q-8.366-7.272-16.829-14.433a3.556,3.556,0,0,0-1.987-.959c-6.122-.058-12.247-.1-18.366.036a7.671,7.671,0,0,0-7.743,6.97,123.484,123.484,0,0,0-.234,12.553c.023,1.854,1.109,2.71,3.007,2.829.8.05,1.614.008,2.4.008.9-11.01,8.97-16.643,16.656-16.916a16.164,16.164,0,0,1,10.237,3.148,17.3,17.3,0,0,1,7.305,13.674H564.12a15.821,15.821,0,0,1,2.938-9.365,16.9,16.9,0,0,1,30.861,8.193c.091,1.007.458,1.306,1.423,1.3,3.971-.04,7.943-.018,11.915-.029a4.653,4.653,0,0,0,.8-.147v-5.346c-1.715,0-3.354.033-4.991-.008-2.061-.052-3.392-1.181-3.44-2.839-.047-1.63,1.284-2.836,3.323-2.957.844-.05,1.694-.008,2.541-.008l.149-.525a20.39,20.39,0,0,0-3.36-1.847,161.791,161.791,0,0,0-47.413-8.6c-15.77-.323-31.551-.131-47.327-.162C511.158,372.878,510.775,372.915,510.062,372.95Zm-22.317,22.464A11.124,11.124,0,0,0,476.56,384.2a11.263,11.263,0,0,0-11.269,11.183,11.385,11.385,0,0,0,11.245,11.271A11.258,11.258,0,0,0,487.746,395.414ZM581.122,384.2a11.224,11.224,0,1,0,11.185,11.252A11.277,11.277,0,0,0,581.122,384.2Zm-96.39-17.537.125.389c4.462,0,9.047.631,13.345-.211,3.106-.608,5.82-3.187,8.724-4.861a21.719,21.719,0,0,1,10.77-3.235q8.514-.066,17.029-.083a21.436,21.436,0,0,1,9.948,2.613c3.468,1.788,6.951,3.552,10.485,5.2a20.062,20.062,0,0,0,3.624.949l.132-.472c-6.494-6.228-14.091-10.281-23.191-10.823-6.319-.376-12.67-.284-19.006-.242a40.037,40.037,0,0,0-7.374.76C500.487,358.387,492.983,363.435,484.732,366.664Zm58.324.311a14.822,14.822,0,0,0-7.391-2.555c-6-.093-12.013-.108-18.016.022a13.806,13.806,0,0,0-7.7,2.533Z" transform="translate(-448.303 -350.152)" fill="#fff"/>
  <path id="Path_47" data-name="Path 47" d="M523.414,467.625a5.691,5.691,0,1,1-5.714-5.657A5.774,5.774,0,0,1,523.414,467.625Z" transform="translate(-489.483 -422.405)" fill="#fff"/>
  <path id="Path_48" data-name="Path 48" d="M818.836,467.686a5.635,5.635,0,1,1-5.6-5.71A5.616,5.616,0,0,1,818.836,467.686Z" transform="translate(-680.45 -422.41)" fill="#fff"/>
</svg>
