<svg xmlns="http://www.w3.org/2000/svg" width="22" height="35" viewBox="0 0 22 35">
  <path id="luggage_icon" data-name="luggage icon" d="M626.556,1432.482v.983a1.528,1.528,0,1,1-3.056,0v-.921h-11v.921a1.528,1.528,0,1,1-3.055,0v-.983a3.072,3.072,0,0,1-2.445-3.009v-19.649a3.067,3.067,0,0,1,3.056-3.07h3.056v-4.912a1.84,1.84,0,0,1,1.833-1.842h6.111a1.84,1.84,0,0,1,1.833,1.842v4.912h3.055a3.066,3.066,0,0,1,3.056,3.07v19.649A3.072,3.072,0,0,1,626.556,1432.482Zm-1.833.983a.306.306,0,1,0,.611,0v-.921h-.611Zm-14.056,0a.306.306,0,1,0,.611,0v-.921h-.611Zm10.389-32.237h-6.111a.613.613,0,0,0-.611.614h7.333A.613.613,0,0,0,621.056,1401.228Zm.611,1.842h-7.333v3.684h7.333Zm6.111,6.754a1.84,1.84,0,0,0-1.833-1.842H610.056a1.84,1.84,0,0,0-1.833,1.842v19.649a1.845,1.845,0,0,0,1.222,1.737V1416a2.489,2.489,0,0,1,2.48-2.492h9.131a.614.614,0,0,1,0,1.228h-9.131a1.263,1.263,0,0,0-1.258,1.265v15.314h14.667v-14.122a.611.611,0,1,1,1.222,0v14.017a1.845,1.845,0,0,0,1.222-1.737Zm-1.87,5.464a.609.609,0,0,1-.86-.085,1.253,1.253,0,0,0-.973-.466H623.5a.614.614,0,0,1,0-1.228h.575a2.469,2.469,0,0,1,1.918.915A.616.616,0,0,1,625.908,1415.288Z" transform="translate(-607 -1400)" fill="#41958c"/>
</svg>
