<svg xmlns="http://www.w3.org/2000/svg" width="32" height="35" viewBox="0 0 32 35">
  <path id="manual_icon" data-name="manual icon" d="M835.427,1434h-7.211a.579.579,0,0,1,0-1.157h6.639v-2.008a1.712,1.712,0,0,0-1.7-1.719H806.846a1.712,1.712,0,0,0-1.7,1.719v2.008H825.62a.579.579,0,0,1,0,1.157H804.573a.575.575,0,0,1-.573-.579v-2.586a2.865,2.865,0,0,1,2.846-2.876h1.405v-1.747a3.124,3.124,0,0,1,3.1-3.137H812.5v-.786a2.865,2.865,0,0,1,2.846-2.876h2.19v-4.947h-.191a.576.576,0,0,1-.573-.579v-1.214a.573.573,0,1,1,1.145,0v.635h4.158v-7.861a.573.573,0,1,1,1.146,0v8.44a.576.576,0,0,1-.573.579h-.191v4.947h2.19a2.864,2.864,0,0,1,2.846,2.876v.786h1.147a3.124,3.124,0,0,1,3.1,3.137v1.747h1.405a2.864,2.864,0,0,1,2.846,2.876v2.586A.575.575,0,0,1,835.427,1434Zm-14.112-19.534h-2.631v4.947h2.631Zm5.036,7.823a1.712,1.712,0,0,0-1.7-1.719h-9.3a1.712,1.712,0,0,0-1.7,1.719v.786h12.7Zm4.251,3.923a1.971,1.971,0,0,0-1.959-1.979H811.356a1.971,1.971,0,0,0-1.959,1.979v1.747H830.6Zm-8.028-22.53a.572.572,0,0,1-.722-.372,4.5,4.5,0,0,0-4.277-3.153h-1.417a2.077,2.077,0,0,0-2.064,2.085v1.729c0,2.085.879,2.085,1.3,2.085h.426a2.114,2.114,0,0,1,2.1,2.122v2.179a.573.573,0,1,1-1.145,0v-2.179a.961.961,0,0,0-.955-.965H815.4a2.165,2.165,0,0,1-1.974-1.061,4.233,4.233,0,0,1-.472-2.182v-1.729a3.23,3.23,0,0,1,3.21-3.243h1.417a5.639,5.639,0,0,1,5.367,3.953A.58.58,0,0,1,822.575,1403.682Z" transform="translate(-804 -1399)" fill="#41958c"/>
</svg>
