<svg xmlns="http://www.w3.org/2000/svg" width="36" height="35" viewBox="0 0 36 35">
  <path id="passanger_icon" data-name="passanger icon" d="M405.805,1421.7a.694.694,0,1,1-.7.694A.7.7,0,0,1,405.805,1421.7Zm29.209.694a.7.7,0,1,1,.7.693A.7.7,0,0,1,435.014,1422.4ZM437.3,1433H402.7a.694.694,0,1,1,0-1.387h5.239v-14.847a.7.7,0,0,1,1.406,0v14.847h4.24v-17.135a6.574,6.574,0,0,1,.32-2.031,5.133,5.133,0,0,0-2.423-.6,4.868,4.868,0,0,0-4.977,4.739v3.1a.7.7,0,0,1-1.406,0v-3.1a6.138,6.138,0,0,1,3.909-5.647,3.271,3.271,0,0,1-1.046-2.394,3.349,3.349,0,0,1,6.7,0,3.266,3.266,0,0,1-.949,2.3,6.563,6.563,0,0,1,.759.328,7.027,7.027,0,0,1,3.627-3.07,3.623,3.623,0,0,1-1.264-2.744,3.7,3.7,0,0,1,7.406,0,3.617,3.617,0,0,1-1.153,2.644,7.035,7.035,0,0,1,3.916,3.189q.261-.135.533-.246l-.064-.059a3.258,3.258,0,0,1-.986-2.333,3.33,3.33,0,0,1,3.341-3.31h.007a3.33,3.33,0,0,1,3.348,3.3,3.256,3.256,0,0,1-.941,2.3,6.4,6.4,0,0,1,2.279,1.4,5.963,5.963,0,0,1,1.887,4.335l.011,3.1a.7.7,0,0,1-.7.7h0a.7.7,0,0,1-.7-.691l-.011-3.1a4.6,4.6,0,0,0-1.457-3.341,5.07,5.07,0,0,0-3.518-1.388h-.011a5.13,5.13,0,0,0-2.451.621,6.576,6.576,0,0,1,.313,2.01v.784a.686.686,0,0,1,.012.122l.032,16.229h4.365l-.032-14.852a.7.7,0,0,1,.7-.695h0a.7.7,0,0,1,.7.692l.032,14.854h3.6a.694.694,0,1,1,0,1.387Zm-25.983-26.371a1.916,1.916,0,1,0,1.942,1.916A1.931,1.931,0,0,0,411.314,1406.629Zm3.681,24.984h1.815v-7.873a3.575,3.575,0,0,1-1.815-.665Zm5.544-28.52a2.265,2.265,0,1,0,2.3,2.265A2.284,2.284,0,0,0,420.539,1403.093Zm5.933,11.385a5.213,5.213,0,0,0-.411-2.035,5.851,5.851,0,0,0-10.645-.023l0,0a5.212,5.212,0,0,0-.419,2.054v5.892a2.039,2.039,0,0,0,1.814,1.976v-7.663a.7.7,0,0,1,1.406,0v16.93h1.71v-8.373a.7.7,0,0,1,1.406,0v8.373h2.022v-16.93a.7.7,0,0,1,1.406,0v7.647a2.032,2.032,0,0,0,1.711-1.96Zm.027,8.576a3.571,3.571,0,0,1-1.737.677v7.883h1.754Zm1.968-13.152a1.943,1.943,0,0,0,1.37.558h0a1.944,1.944,0,0,0,1.372-.564,1.89,1.89,0,0,0,.566-1.355,1.931,1.931,0,0,0-1.942-1.911h0a1.931,1.931,0,0,0-1.938,1.92A1.891,1.891,0,0,0,428.467,1409.9Zm-1.137-5.943a2.98,2.98,0,1,1,3.021-2.979A3,3,0,0,1,427.329,1403.959Zm0-4.572a1.593,1.593,0,1,0,1.615,1.592A1.605,1.605,0,0,0,427.329,1399.387Zm-13.7,4.572a2.98,2.98,0,1,1,3.021-2.979A3,3,0,0,1,413.632,1403.959Zm0-4.572a1.593,1.593,0,1,0,1.615,1.592A1.605,1.605,0,0,0,413.632,1399.387Z" transform="translate(-402 -1398)" fill="#41958c"/>
</svg>
