<svg xmlns="http://www.w3.org/2000/svg" width="28" height="28" viewBox="0 0 28 28">
  <path id="view_icon" data-name="view icon" d="M1052.5,1122a14,14,0,1,1,14-14A13.96,13.96,0,0,1,1052.5,1122Zm8.146-7.763-3.436-3.436c-.127-.064-.127-.255-.064-.382a6.831,6.831,0,0,0,1.082-3.755,7,7,0,1,0-7,7,6.829,6.829,0,0,0,3.755-1.082.3.3,0,0,1,.382.064l3.436,3.436a.615.615,0,0,0,.891,0l.891-.891A.764.764,0,0,0,1060.646,1114.236Zm-9.418-3.055a4.454,4.454,0,1,1,4.454-4.454A4.454,4.454,0,0,1,1051.227,1111.182Z" transform="translate(-1038.5 -1094)" fill="#fff"/>
</svg>
